<svg width="64" height="64" viewBox="0 0 64 64" fill="none" xmlns="http://www.w3.org/2000/svg">
  <!-- PS Route logo — monochrome for ColorFilter compatibility -->
  <g fill="#A855F7">
    <!-- Shield shape -->
    <path fill-rule="evenodd" clip-rule="evenodd" d="M32 4L8 15v17c0 15 10.7 29 24 32 13.3-3 24-17 24-32V15L32 4zm0 5.2L52 18.6V32c0 12.5-8.9 24.2-20 26.8C20.9 56.2 12 44.5 12 32V18.6L32 9.2z"/>
    <!-- Stylized route arrow pointing up-right -->
    <path d="M24 40V28l-4 4-2.8-2.8L32 14.4l14.8 14.8L44 32l-4-4v12H24zm4-4h8V26.3l4 4 .6-.6L32 19.1l-8.6 8.6.6.6 4-4V36z"/>
  </g>
</svg>
